<svg width="52" height="50" viewBox="0 0 52 50" fill="none" xmlns="http://www.w3.org/2000/svg">
<path d="M25.0482 13.6115C23.7467 13.7186 22.4955 14.1511 21.415 14.867C20.6631 15.3729 19.802 15.7035 18.8982 15.8335C17.9945 15.7035 17.1334 15.3729 16.3812 14.867C15.3007 14.1511 14.0495 13.7186 12.7482 13.6115C9.51361 13.6115 7.50908 15.9337 7.50908 19.6558C7.41356 23.2047 8.07277 26.7345 9.44523 30.0222L13.0896 37.4222C13.1826 37.6203 13.3341 37.7866 13.5249 37.8996C13.7159 38.0126 13.9373 38.0671 14.1604 38.0556C14.3843 38.0447 14.6005 37.9705 14.7824 37.8424C14.9643 37.7144 15.1042 37.5375 15.1854 37.3332L17.896 30.3221C18.1236 29.5333 18.5566 29.1664 18.8869 29.1664C19.2173 29.1664 19.6614 29.533 19.9348 30.4108L22.6111 37.333L22.6108 37.3332C22.6918 37.5375 22.8319 37.7144 23.0138 37.8424C23.1957 37.9705 23.4116 38.0447 23.6358 38.0556H23.6813C23.8958 38.0545 24.1057 37.9945 24.2871 37.8826C24.4684 37.7705 24.6137 37.6109 24.7063 37.4222L28.3507 30.0222C29.7232 26.7343 30.3824 23.2045 30.2869 19.6558C30.2869 15.9337 28.2823 13.6115 25.048 13.6115L25.0482 13.6115Z" fill="#6B5AE0"/>
<path d="M42.8144 34.7222H39.3979V32.5001H41.6755C41.9773 32.499 42.2664 32.3818 42.4797 32.1737C42.6934 31.9655 42.8135 31.6834 42.8143 31.3888V28.0557H39.3979C38.9909 28.0557 38.6148 27.8439 38.4115 27.5001C38.2081 27.1561 38.2081 26.7326 38.4115 26.3888C38.6148 26.045 38.9909 25.8333 39.3979 25.8333H42.8146L42.8143 23.6112H39.3979C38.9909 23.6112 38.6148 23.3994 38.4115 23.0557C38.2081 22.7119 38.2081 22.2884 38.4115 21.9443C38.6148 21.6006 38.9909 21.3888 39.3979 21.3888H42.8146L42.8144 20.2777C42.8118 19.3944 42.4509 18.5481 41.8108 17.9236C41.1708 17.2989 40.303 16.9471 39.3979 16.9443V13.6111C39.3979 13.2141 39.1808 12.8472 38.8285 12.6488C38.4758 12.4504 38.0417 12.4504 37.6893 12.6488C37.3369 12.8472 37.1199 13.2141 37.1199 13.6111V16.9446V16.9443C36.2148 16.9471 35.347 17.2989 34.707 17.9236C34.0667 18.5481 33.706 19.3944 33.7034 20.2777V31.3884C33.7043 31.6831 33.8244 31.9652 34.0378 32.1733C34.2514 32.3814 34.5406 32.4986 34.8423 32.4997H37.1199V34.7218H33.7034C33.2964 34.7218 32.9204 34.9336 32.717 35.2773C32.5134 35.6211 32.5134 36.0446 32.717 36.3884C32.9203 36.7322 33.2964 36.9439 33.7034 36.9439H42.8149H42.8146C43.2216 36.9439 43.5977 36.7322 43.8011 36.3884C44.0044 36.0447 44.0044 35.6211 43.8011 35.2773C43.5977 34.9336 43.2216 34.7218 42.8146 34.7218L42.8144 34.7222Z" fill="#6B5AE0"/>
</svg>
