<svg width="52" height="50" viewBox="0 0 52 50" fill="none" xmlns="http://www.w3.org/2000/svg">
<path d="M37.1002 22.7913L37.2355 22.5714C38.0466 21.1208 38.7673 19.8462 38.8125 16.7692V16.4615V16.2857C38.7224 14.0879 37.9113 12.5494 36.1994 11.4065C34.8026 10.4835 32.8653 10 30.7478 10H30.7026C29.2609 10 27.774 10.2199 26.5574 10.6593C28.2245 11.7581 29.3058 12.8572 29.3959 12.945C29.7114 13.2528 29.7114 13.7363 29.3959 14.0438C29.2607 14.1758 29.0356 14.2637 28.8554 14.2637C28.6301 14.2637 28.4499 14.1758 28.2697 14.0438C28.1793 13.9121 22.5924 7.45061 15.1131 11.4068C13.3108 12.3739 12.5901 14.0882 12.5 16.286V16.7696C12.5452 19.8466 13.221 21.0774 14.077 22.5717L14.2122 22.7916C14.3023 22.9236 14.3475 23.0114 14.4376 23.1431H19.8892C19.9793 23.1431 20.5201 23.0991 20.7003 22.6596V21.2969C20.7003 21.077 20.7003 20.4177 21.1959 19.8463C21.4662 19.5826 21.9618 19.2307 22.8177 19.2307H28.5848C29.4408 19.2307 29.9364 19.5823 30.2067 19.8463C30.7023 20.3736 30.7023 21.077 30.7023 21.2969V22.6596C30.8825 23.1431 31.4233 23.1431 31.5134 23.1431H36.965C36.9195 23.0112 37.0099 22.9233 37.1 22.7913L37.1002 22.7913Z" fill="#6B5AE0"/>
<path d="M33.676 37.6041C34.397 36.4171 35.2979 33.9997 35.2979 29.3841C35.2979 27.3182 35.6582 25.8235 36.1538 24.6369L31.4232 24.6371H31.378C30.7471 24.6371 29.4856 24.2856 29.1252 22.9669C29.1252 22.879 29.08 22.8349 29.08 22.7471V21.2526V21.1647C29.08 21.1206 29.08 20.9449 28.9899 20.8132C28.8999 20.7253 28.6296 20.6812 28.5395 20.6812L22.7724 20.6809C22.6371 20.6809 22.4121 20.6809 22.322 20.8129C22.2319 20.9008 22.2319 21.1206 22.2319 21.1645V21.2523V22.7468C22.2319 22.8347 22.2319 22.8788 22.1867 22.9666C21.7812 24.2853 20.4747 24.6369 19.889 24.6369H15.2033C15.6989 25.8238 16.0593 27.3182 16.0144 29.3841C16.0144 33.9996 16.8703 36.417 17.6362 37.6041C18.4473 38.9227 18.8977 39.4504 20.2493 39.4504C21.5108 39.4504 22.2318 38.3954 22.3219 37.3845C22.3671 36.8572 22.3671 36.1976 22.412 35.5382C22.4572 33.9997 22.4572 32.1096 23.0878 30.0876C23.3132 29.3404 23.6284 28.4174 24.1692 27.6261C24.4847 27.1425 25.2053 26.659 25.8812 26.659C26.4217 26.659 26.9173 26.9668 27.278 27.582C27.8185 28.4171 28.1339 29.2963 28.3593 30.1314C28.945 32.0655 29.2153 34.3071 29.0351 36.1534C28.945 37.3404 29.1704 38.2193 29.7109 38.7907C30.2515 39.4062 30.9275 39.45 31.1526 39.45C32.3243 39.4503 32.8649 38.923 33.6759 37.604L33.676 37.6041Z" fill="#6B5AE0"/>
</svg>
